<svg xmlns="http://www.w3.org/2000/svg" width="1440" height="470" fill="none" xmlns:v="https://vecta.io/nano"><g clip-path="url(#C)"><path fill="url(#A)" d="M0 0h1440v470H0z"/><path d="M720.033 9L1186.07 340.5H254L720.033 9Z" fill="url(#B)"/><g fill-rule="evenodd"><g fill="#f7be23"><path d="M704.33 15.782c0 6.896 6.298 12.485 14.067 12.486s14.066-5.59 14.066-12.485-6.298-12.485-14.067-12.486-14.066 5.59-14.066 12.485zm36.436 14.568c.36-.319.493-.809.294-1.256l-3.605-8.101c-.267-.6-1.032-.894-1.708-.657s-1.007.916-.74 1.516l3.605 8.102c.267.6 1.032.894 1.708.657.173-.061.323-.15.446-.26zm-7.322 16.757c.302-.268.451-.66.36-1.058l-1.944-8.538c-.144-.632-.838-1.041-1.55-.913s-1.174.744-1.03 1.377l1.944 8.538c.144.632.839 1.041 1.551.913a1.37 1.37 0 0 0 .669-.318zm-45.368-5.103a1.16 1.16 0 0 0 .298-.41l2.25-5.244c.259-.603-.082-1.278-.761-1.508s-1.44.074-1.699.676l-2.249 5.245c-.259.603.082 1.278.761 1.507a1.44 1.44 0 0 0 1.4-.266zm16.737 5.137c.176-.156.304-.359.358-.592l1.962-8.535c.146-.632-.314-1.249-1.026-1.378s-1.407.279-1.553.911l-1.962 8.535c-.145.632.314 1.249 1.026 1.378.45.082.893-.051 1.195-.319zm-7.721-14.532a1.16 1.16 0 0 0 .314-.448l3.168-8.244c.234-.61-.133-1.274-.821-1.483s-1.436.118-1.67.728l-3.169 8.244c-.234.611.133 1.274.821 1.483.491.149 1.013.025 1.357-.28zm57.057 4.081a1.07 1.07 0 0 0 .194-1.431l-3.379-4.95c-.377-.552-1.187-.728-1.808-.393s-.82 1.053-.444 1.604l3.38 4.95c.377.552 1.186.728 1.808.394a1.29 1.29 0 0 0 .249-.174zm-34.778 22.922a1.1 1.1 0 0 0 .385-.837l-.159-16.044c-.006-.645-.601-1.163-1.328-1.158s-1.31.534-1.304 1.178l.159 16.044c.007.645.601 1.164 1.328 1.158a1.4 1.4 0 0 0 .919-.342zm21.537-24.447c.609.541 1.598.541 2.207 0s.61-1.418 0-1.959-1.597-.541-2.207 0-.609 1.418 0 1.959z"/></g><path d="M692.038 23.127h52.576c1.284 0 2.117-1.202 1.538-2.219l-7.51-13.19c0-2.934-2.68-5.312-5.984-5.311h-28.663c-3.305 0-5.984 2.378-5.984 5.312l-7.511 13.19c-.579 1.017.254 2.22 1.538 2.22z" fill="#b88a09"/><path d="M739.686 20.902l-7.511-13.19c.001-2.933-2.679-5.312-5.984-5.312h6.46c3.304 0 5.983 2.378 5.984 5.312l7.51 13.19c.579 1.017-.254 2.22-1.538 2.219h-6.459c1.284 0 2.117-1.202 1.538-2.219z" fill="#997a2b"/><path d="M698.011 7.548h40.631v-25.21c0-2.934-2.68-5.312-5.984-5.312h-28.663c-3.305 0-5.984 2.378-5.984 5.312v25.21z" fill="#f7be23"/><path d="M726.191-22.971h6.46c3.304 0 5.984 2.378 5.984 5.312v25.21h-6.46l.001-25.21c-.001-2.934-2.68-5.312-5.985-5.312z" fill="#e5ad23"/></g></g><defs><linearGradient id="A" x1="720" y1="0" x2="720" y2="470" gradientUnits="userSpaceOnUse"><stop stop-color="#fff8e3"/><stop offset="1" stop-color="#fff8e3" stop-opacity="0"/></linearGradient><linearGradient id="B" x1="720.033" y1="9" x2="720" y2="341" gradientUnits="userSpaceOnUse"><stop stop-color="#ffe396"/><stop offset="1" stop-color="#fff"/></linearGradient><clipPath id="C"><path fill="#fff" d="M0 0h1440v470H0z"/></clipPath></defs></svg>