<svg xmlns="http://www.w3.org/2000/svg" viewBox="0 0 24 24" class="c-cZuCZG c-cZuCZG-gtZKQU-size-large c-cZuCZG-dmsdwv-rotate-up c-cZuCZG-kcukZZ-padding-xs c-cZuCZG-iiOrKgO-css"><path xmlns="http://www.w3.org/2000/svg" fill-rule="evenodd" clip-rule="evenodd" d="M15.8931 19C15.7825 19 15.6712 18.9727 15.569 18.9165L11.9997 16.9489L8.43101 18.9165C8.1944 19.0458 7.9088 19.0236 7.6946 18.8582C7.479 18.6927 7.37189 18.4128 7.41739 18.1358L8.0971 13.9791L5.21307 11.0358C5.02127 10.84 4.95196 10.5461 5.03387 10.2772C5.11577 10.0099 5.33487 9.81414 5.59947 9.77426L9.58952 9.1627L11.3731 5.37668C11.6097 4.87444 12.3903 4.87444 12.6269 5.37668L14.4105 9.1627L18.4005 9.77426C18.6651 9.81414 18.8842 10.0099 18.9661 10.2772C19.048 10.5461 18.9787 10.84 18.7869 11.0358L15.9029 13.9791L16.5826 18.1358C16.6281 18.4128 16.5203 18.6927 16.3054 18.8582C16.1836 18.9527 16.0387 19 15.8931 19Z" stroke-width="1"/></svg>