<svg xmlns="http://www.w3.org/2000/svg" viewBox="0 0 24 24" class="c-cZuCZG c-cZuCZG-gtZKQU-size-large c-cZuCZG-dmsdwv-rotate-up"><svg width="24" height="24" viewBox="0 0 24 24" fill="none" xmlns="http://www.w3.org/2000/svg"><path d="M7.52375 18.8574L7.82611 19.0366C9.09664 19.7906 10.5533 20.1894 12.0387 20.1902H12.0419C16.6039 20.1902 20.3167 16.4781 20.3184 11.9159C20.3192 9.70485 19.4591 7.62606 17.8965 6.06197C16.3337 4.49817 14.256 3.63636 12.0449 3.63544C7.47954 3.63544 3.76668 7.34688 3.76496 11.9091C3.76436 13.4725 4.20169 14.9951 5.03032 16.3123L5.22727 16.6254L4.39095 19.6787L7.52375 18.8574ZM2.00024 22.0438L3.41294 16.8854C2.54157 15.3757 2.08317 13.6631 2.08389 11.9087C2.08601 6.41985 6.55281 1.95435 12.0422 1.95435C14.7058 1.95549 17.206 2.99217 19.0861 4.87384C20.966 6.75549 22.001 9.25668 22.0001 11.9167C21.9978 17.4052 17.5301 21.8716 12.0422 21.8716C12.0417 21.8716 12.0424 21.8716 12.0422 21.8716H12.0379C10.3713 21.871 8.73379 21.453 7.27936 20.6597L2.00024 22.0438Z" fill="white"/><path d="M2.08364 11.9107C2.08304 13.6651 2.54144 15.3779 3.41281 16.8874L2 22.0455L7.27895 20.6614C8.73346 21.4546 10.3709 21.8726 12.0375 21.8733H12.0417C17.5296 21.8733 21.9974 17.4069 21.9997 11.9184C22.0006 9.25825 20.9656 6.75711 19.0857 4.87556C17.2055 2.994 14.7055 1.9572 12.0417 1.95605C6.55268 1.95605 2.08577 6.42156 2.08348 11.9104M5.22713 16.6273L5.03008 16.3143C4.20145 14.9969 3.76412 13.4743 3.76472 11.9111C3.76653 7.34917 7.4793 3.63743 12.0447 3.63743C14.2555 3.63829 16.3333 4.50019 17.8963 6.06396C19.459 7.62785 20.3189 9.70681 20.3183 11.9176C20.3163 16.4798 16.6035 20.1919 12.0415 20.1919H12.0383C10.5529 20.191 9.09614 19.7923 7.8257 19.0384L7.52334 18.8591L4.39059 19.6805L5.22713 16.6273ZM12.0417 21.8733H12.0418H12.0417C12.0415 21.8733 12.0416 21.8733 12.0417 21.8733Z" fill="white"/><path fill-rule="evenodd" clip-rule="evenodd" d="M9.55299 7.74896C9.36657 7.33459 9.17042 7.3263 8.99312 7.31901C8.84801 7.31283 8.68205 7.31324 8.51629 7.31324C8.35032 7.31324 8.08076 7.37551 7.85282 7.6245C7.62468 7.87351 6.98189 8.47541 6.98189 9.69955C6.98189 10.9238 7.87361 12.1067 7.99784 12.2729C8.12228 12.4388 9.71918 15.0313 12.248 16.0286C14.3499 16.8574 14.7776 16.6925 15.2338 16.651C15.69 16.6096 16.706 16.0493 16.9132 15.4683C17.1206 14.8873 17.1206 14.3894 17.0584 14.2854C16.9963 14.1817 16.8303 14.1194 16.5815 13.995C16.3326 13.8706 15.1094 13.2686 14.8813 13.1856C14.6532 13.1026 14.4873 13.0612 14.3213 13.3103C14.1555 13.5591 13.6789 14.1194 13.5337 14.2854C13.3886 14.4516 13.2434 14.4724 12.9946 14.3479C12.7457 14.2231 11.9443 13.9606 10.9937 13.1131C10.254 12.4536 9.75466 11.6391 9.60944 11.39C9.46434 11.1412 9.59395 11.0064 9.7187 10.8823C9.8305 10.7709 9.9676 10.5918 10.0921 10.4466C10.2162 10.3013 10.2576 10.1976 10.3406 10.0316C10.4236 9.86557 10.3821 9.72026 10.3199 9.5958C10.2576 9.47135 9.77409 8.24091 9.55284 7.74889" fill="white"/></svg></svg>