<svg xmlns="http://www.w3.org/2000/svg" viewBox="0 0 20 20" fill="#30363C" class="c-cZuCZG c-cZuCZG-hNOgxQ-size-medium c-cZuCZG-dmsdwv-rotate-up c-cZuCZG-ibZrspp-css"><path d="M16.4446 12.672C16.093 13.4528 15.9236 13.8018 15.4714 14.491C14.8384 15.4539 13.9455 16.6564 12.8424 16.664C11.8603 16.6729 11.6068 16.0233 10.2732 16.0348C8.94082 16.0411 8.66314 16.6767 7.67979 16.6666C6.57544 16.6564 5.73093 15.5737 5.09787 14.612C3.32733 11.9154 3.14009 8.75391 4.23425 7.07254C5.0087 5.88029 6.23279 5.17972 7.383 5.17972C8.55487 5.17972 9.29111 5.82297 10.2592 5.82297C11.1992 5.82297 11.7711 5.17845 13.1264 5.17845C14.1505 5.17845 15.2332 5.73636 16.0077 6.69932C13.4754 8.08773 13.8869 11.704 16.4446 12.672ZM12.0972 4.10211C12.5902 3.46905 12.9647 2.57614 12.8284 1.66667C12.0246 1.72144 11.0846 2.23477 10.5356 2.89968C10.0375 3.50599 9.62483 4.40527 9.78533 5.27525C10.663 5.30328 11.5711 4.77976 12.0972 4.10211Z"/></svg>