<svg xmlns="http://www.w3.org/2000/svg" viewBox="0 0 20 20" fill="#30363C" class="c-cZuCZG c-cZuCZG-hNOgxQ-size-medium c-cZuCZG-dmsdwv-rotate-up c-cZuCZG-ibZrspp-css"><path d="M4.08052 2.5L11.1471 9.51564L13.0846 7.57818L4.519 2.63256C4.37624 2.54971 4.22328 2.50382 4.08052 2.5ZM3.48909 2.82631C3.42535 2.93975 3.38712 3.07359 3.38712 3.224V16.8576C3.38712 16.9672 3.41006 17.0653 3.4483 17.1533L10.6781 9.97451L3.48909 2.82631ZM13.676 7.91468L11.606 9.97451L13.676 12.0241L16.2049 10.5761C16.5644 10.3684 16.6154 10.1045 16.6128 9.96431C16.609 9.73233 16.4624 9.51564 16.2151 9.38307C15.9997 9.26708 14.4 8.33532 13.676 7.91468ZM11.1471 10.4334L4.01934 17.5C4.13788 17.4936 4.26662 17.4681 4.38644 17.398C4.66558 17.2361 10.311 13.9718 10.311 13.9718L13.0948 12.3708L11.1471 10.4334Z"/></svg>